#!OML:ASF F:\VICON\USERDATA\INSTALL\rory3\rory3.ASF
:FULLY-SPECIFIED
:DEGREES
318
root -0.0286543 17.959 -1.02116 1.0039 -7.81931 1.3664
lowerback -1.73117 -0.776172 -3.63926
upperback 0.413201 -0.972556 1.3851
thorax 1.48064 -0.524682 3.43745
lowerneck -16.9774 0.143633 -8.3792
upperneck 30.4767 1.81212 3.15058
head 12.9084 0.228394 2.95076
rclavicle -7.77745e-015 5.1684e-015
rhumerus -18.1481 20.3778 -82.6777
rradius 121.257
rwrist 22.0324
rhand -22.3676 19.1593
rfingers 7.12502
rthumb 4.0538 -10.7819
lclavicle -7.77745e-015 5.1684e-015
lhumerus -29.8189 -26.0216 99.3888
lradius 99.1774
lwrist 5.65191
lhand -18.3887 22.5322
lfingers 7.12502
lthumb 7.89519 52.3647
rfemur -6.83771 7.08296 15.0391
rtibia 25.0561
rfoot -16.418 -3.5309
rtoes 4.29207
lfemur -0.266942 -1.92058 -21.5567
ltibia 14.6538
lfoot -11.2222 3.62474
ltoes -12.0147
319
root -0.0311371 17.958 -1.0182 0.962811 -7.7636 1.47907
lowerback -1.72559 -0.779706 -3.78494
upperback 0.420298 -0.973802 1.36385
thorax 1.48714 -0.526752 3.49766
lowerneck -16.9576 0.16473 -8.38527
upperneck 30.5444 1.84755 3.13955
head 12.93 0.23964 2.9546
rclavicle -2.41896e-014 1.86858e-014
rhumerus -18.7922 19.6045 -82.9002
rradius 120.959
rwrist 21.5209
rhand -22.8468 18.7754
rfingers 7.12502
rthumb 3.59109 -11.1741
lclavicle -2.41896e-014 1.86858e-014
lhumerus -29.3155 -26.1538 99.2048
lradius 99.8597
lwrist 5.33722
lhand -18.3337 22.9068
lfingers 7.12502
lthumb 7.94824 52.7373
rfemur -6.78419 7.01662 14.9249
rtibia 25.0646
rfoot -16.4385 -3.501
rtoes 4.24602
lfemur -0.234437 -1.94315 -21.674
ltibia 14.636
lfoot -11.2364 3.56802
ltoes -12.1852
320
root -0.0352331 17.9561 -1.0181 0.900915 -7.73296 1.45636
lowerback -1.6861 -0.777782 -3.81477
upperback 0.452448 -0.971848 1.37397
thorax 1.49859 -0.526914 3.52529
lowerneck -16.8372 0.196324 -8.44002
upperneck 30.5053 1.87846 3.20013
head 12.8841 0.256681 2.98928
rclavicle 3.64024e-015 -7.95139e-015
rhumerus -19.4466 18.8039 -83.1689
rradius 120.617
rwrist 21.0209
rhand -23.3101 18.3783
rfingers 7.12502
rthumb 3.1436 -11.5783
lclavicle 3.64024e-015 -7.95139e-015
lhumerus -28.6751 -26.356 98.8866
lradius 100.531
lwrist 5.26283
lhand -18.239 23.1635
lfingers 7.12502
lthumb 8.03967 52.9906
rfemur -6.69587 7.03334 14.9834
rtibia 25.0673
rfoot -16.4602 -3.55172
rtoes 4.02968
lfemur -0.152876 -1.9264 -21.6297
ltibia 14.6075
lfoot -11.2316 3.5183
ltoes -12.0929
321
root -0.0377099 17.9565 -1.01882 0.878765 -7.68305 1.43333
lowerback -1.64931 -0.778678 -3.82246
upperback 0.455862 -0.974325 1.38329
thorax 1.48198 -0.52798 3.53963
lowerneck -16.5886 0.219554 -8.55544
upperneck 30.3661 1.88614 3.30789
head 12.77 0.26628 3.04399
rclavicle 4.79568e-015 1.74931e-014
rhumerus -20.092 17.969 -83.3538
rradius 120.123
rwrist 20.5757
rhand -23.6109 18.1224
rfingers 7.12502
rthumb 2.85317 -11.8382
lclavicle 4.79568e-015 1.74931e-014
lhumerus -28.0355 -26.5717 98.6012
lradius 101.181
lwrist 5.06635
lhand -18.3998 23.3136
lfingers 7.12502
lthumb 7.88443 53.1466
rfemur -6.65245 7.05409 15.026
rtibia 25.0741
rfoot -16.5133 -3.57565
rtoes 4.56526
lfemur -0.125527 -1.9259 -21.5903
ltibia 14.6043
lfoot -11.2339 3.4859
ltoes -11.9606
322
root -0.0383983 17.9584 -1.01823 0.88853 -7.61906 1.44189
lowerback -1.66814 -0.801038 -3.82768
upperback 0.467826 -1.00319 1.37952
thorax 1.5075 -0.543202 3.53741
lowerneck -16.5073 0.249107 -8.60241
upperneck 30.325 1.92665 3.33356
head 12.7319 0.283753 3.06548
rclavicle 2.87617e-014 -3.18055e-015
rhumerus -20.6403 17.2711 -83.4649
rradius 119.444
rwrist 19.9369
rhand -23.9248 18.114
rfingers 7.12502
rthumb 2.54994 -11.8505
lclavicle 2.87617e-014 -3.18055e-015
lhumerus -27.3969 -26.7074 98.3375
lradius 101.828
lwrist 4.72374
lhand -18.7103 23.6698
lfingers 7.12502
lthumb 7.58475 53.5138
rfemur -6.64156 7.0137 15.0206
rtibia 25.0688
rfoot -16.5229 -3.60557
rtoes 4.61532
lfemur -0.158312 -1.96719 -21.5964
ltibia 14.654
lfoot -11.2478 3.46692
ltoes -11.9975
323
root -0.0387381 17.9586 -1.02081 0.961355 -7.63544 1.40156
lowerback -1.66557 -0.79656 -3.78621
upperback 0.425268 -0.998759 1.38909
thorax 1.46128 -0.538922 3.52439
lowerneck -16.5011 0.277515 -8.59355
upperneck 30.39 1.96976 3.32013
head 12.7545 0.299813 3.06705
rclavicle -1.00386e-014 -3.97569e-015
rhumerus -21.276 16.6302 -83.5894
rradius 118.73
rwrist 19.4706
rhand -24.3764 17.906
rfingers 7.12502
rthumb 2.11387 -12.0633
lclavicle -1.00386e-014 -3.97569e-015
lhumerus -26.7763 -26.8081 98.0611
lradius 102.42
lwrist 4.32476
lhand -18.8697 24.1848
lfingers 7.12502
lthumb 7.43096 54.0343
rfemur -6.73294 6.99053 15.0543
rtibia 25.0651
rfoot -16.4896 -3.59805
rtoes 4.52495
lfemur -0.265088 -2.00707 -21.5563
ltibia 14.7027
lfoot -11.267 3.52368
ltoes -12.044
324
root -0.0380862 17.9593 -1.02429 1.02062 -7.7284 1.38756
lowerback -1.6485 -0.773955 -3.76722
upperback 0.383773 -0.970077 1.39432
thorax 1.40618 -0.522537 3.52051
lowerneck -16.4799 0.321702 -8.56455
upperneck 30.4639 2.04465 3.25564
head 12.7767 0.325004 3.05008
rclavicle 2.4786e-014 -6.36111e-015
rhumerus -21.8748 16.0048 -83.7304
rradius 117.94
rwrist 19.302
rhand -25.0652 17.6572
rfingers 7.12502
rthumb 1.44858 -12.3176
lclavicle 2.4786e-014 -6.36111e-015
lhumerus -26.0321 -26.9857 97.6593
lradius 102.945
lwrist 4.21067
lhand -18.9697 24.4938
lfingers 7.12502
lthumb 7.33441 54.3466
rfemur -6.85744 6.99123 15.048
rtibia 25.0862
rfoot -16.4129 -3.54325
rtoes 4.41615
lfemur -0.350272 -2.00259 -21.5534
ltibia 14.7251
lfoot -11.2558 3.60584
ltoes -12.0195
325
root -0.0396152 17.9587 -1.02541 0.986235 -7.77647 1.38028
lowerback -1.59117 -0.752482 -3.7854
upperback 0.385512 -0.94323 1.40483
thorax 1.37389 -0.508659 3.54317
lowerneck -16.5088 0.355817 -8.589
upperneck 30.5837 2.10215 3.27013
head 12.8275 0.345404 3.0727
rclavicle -1.55425e-014 -3.57812e-015
rhumerus -22.4247 15.3736 -83.8091
rradius 117.11
rwrist 19.0469
rhand -25.7607 17.6474
rfingers 7.12502
rthumb 0.776899 -12.3309
lclavicle -1.55425e-014 -3.57812e-015
lhumerus -25.2221 -27.2585 97.1873
lradius 103.477
lwrist 4.26769
lhand -19.0973 24.6532
lfingers 7.12502
lthumb 7.21121 54.5104
rfemur -6.86193 7.01136 15.0646
rtibia 25.1331
rfoot -16.4013 -3.53714
rtoes 4.24657
lfemur -0.315301 -2.02604 -21.551
ltibia 14.7365
lfoot -11.2488 3.67398
ltoes -11.9469
326
root -0.0419855 17.9572 -1.02454 0.885823 -7.76675 1.42058
lowerback -1.50694 -0.762527 -3.8501
upperback 0.407928 -0.958029 1.39404
thorax 1.35193 -0.516473 3.56897
lowerneck -16.5307 0.388093 -8.5929
upperneck 30.6551 2.15095 3.27851
head 12.8578 0.365097 3.08653
rclavicle -6.69532e-014 -7.95139e-016
rhumerus -22.9455 14.8001 -83.9151
rradius 116.172
rwrist 18.7431
rhand -26.3984 17.6429
rfingers 7.12502
rthumb 0.160961 -12.3368
lclavicle -6.69532e-014 -7.95139e-016
lhumerus -24.3285 -27.4952 96.6225
lradius 103.967
lwrist 4.27813
lhand -19.198 24.9022
lfingers 7.12502
lthumb 7.11399 54.7627
rfemur -6.77635 7.02308 15.0462
rtibia 25.1931
rfoot -16.4654 -3.56263
rtoes 4.08966
lfemur -0.196122 -1.99818 -21.587
ltibia 14.7125
lfoot -11.2524 3.64179
ltoes -12.0422
327
root -0.044125 17.9555 -1.02287 0.874586 -7.75744 1.46985
lowerback -1.57104 -0.799896 -3.91292
upperback 0.436739 -1.00383 1.38527
thorax 1.42272 -0.541928 3.59295
lowerneck -16.4996 0.432051 -8.644
upperneck 30.629 2.20779 3.33751
head 12.834 0.393146 3.12535
rclavicle -2.37299e-015 -3.57812e-015
rhumerus -23.4095 14.2948 -84.0281
rradius 115.109
rwrist 18.492
rhand -26.8495 17.5829
rfingers 7.12502
rthumb -0.274727 -12.3967
lclavicle -2.37299e-015 -3.57812e-015
lhumerus -23.3981 -27.6854 96.0282
lradius 104.46
lwrist 4.19821
lhand -19.2836 25.0905
lfingers 7.12502
lthumb 7.03143 54.9538
rfemur -6.773 6.99116 14.9942
rtibia 25.2483
rfoot -16.5115 -3.50241
rtoes 4.4421
lfemur -0.16273 -1.97854 -21.6381
ltibia 14.6654
lfoot -11.2151 3.62635
ltoes -12.2995
328
root -0.0458973 17.9537 -1.02216 0.869087 -7.72577 1.5179
lowerback -1.61359 -0.839199 -3.9677
upperback 0.432848 -1.05348 1.38087
thorax 1.44814 -0.567707 3.61721
lowerneck -16.3624 0.483881 -8.69702
upperneck 30.5859 2.28164 3.34553
head 12.7808 0.422289 3.14462
rclavicle 2.68359e-015 -1.03368e-014
rhumerus -23.9257 13.6968 -84.0867
rradius 114.001
rwrist 18.1605
rhand -26.906 17.6719
rfingers 7.12502
rthumb -0.329272 -12.3076
lclavicle 2.68359e-015 -1.03368e-014
lhumerus -22.5743 -27.8218 95.4999
lradius 104.916
lwrist 4.17105
lhand -19.402 25.1066
lfingers 7.12502
lthumb 6.91715 54.9736
rfemur -6.76405 6.99234 14.943
rtibia 25.2931
rfoot -16.6056 -3.47479
rtoes 4.80278
lfemur -0.132491 -2.01302 -21.6888
ltibia 14.6022
lfoot -11.1835 3.60807
ltoes -12.2806
329
root -0.0490593 17.9539 -1.02122 0.858448 -7.59431 1.54285
lowerback -1.64101 -0.901432 -4.03546
upperback 0.428589 -1.13414 1.38697
thorax 1.46816 -0.609054 3.65881
lowerneck -16.2177 0.53254 -8.74106
upperneck 30.5623 2.35127 3.34174
head 12.7349 0.448404 3.1575
rclavicle -9.72802e-015 -1.35174e-014
rhumerus -24.4456 13.052 -84.1224
rradius 112.886
rwrist 17.7926
rhand -26.9223 17.9354
rfingers 7.12502
rthumb -0.34503 -12.0441
lclavicle -9.72802e-015 -1.35174e-014
lhumerus -21.8812 -28.0453 95.0654
lradius 105.506
lwrist 3.82296
lhand -19.3161 25.7785
lfingers 7.12502
lthumb 7.00004 55.6428
rfemur -6.75046 6.94161 14.9435
rtibia 25.322
rfoot -16.6364 -3.57431
rtoes 4.34164
lfemur -0.111457 -2.09394 -21.6993
ltibia 14.5616
lfoot -11.1698 3.5518
ltoes -12.2632
